# xmcd CD database file
#
# Track frame offsets:
#	225
#	19750
#	39565
#	51414
#	72093
#	86192
#	110057
#	124535
#	141875
#	172001
#	202655
#	216650
#	234822
#	255809
#
# Disc length: 3774 seconds
#
# Revision: 1
# Processed by: cddbd v1.5.2PL0 Copyright (c) Steve Scherf et al.
# Submitted via: CDex 1.50
#
DISCID=c40ebb0e
DTITLE=Various Artist - 2007 Festival International de Jazz de Montreal
DYEAR=2007
DGENRE=Jazz
TTITLE0=Nikki Yanofsky - Air Mail Special
TTITLE1=Holly Cole - Waters of March
TTITLE2=Natalie Cole - A Tisket, A Tasket
TTITLE3=Sophie Milman - Rocket Love
TTITLE4=Teddy Thompson - Change of Heart
TTITLE5=Mark Murphy - My Foolish Heart
TTITLE6=Puppini Sisters - Sway
TTITLE7=Room Eleven - One of These Days
TTITLE8=Sidsel Endresen - Slow Song
TTITLE9=Dee Dee Bridgewater- Footprints
TTITLE10=Queen Latifah - Sugar In My Bowl
TTITLE11=Paul Anka - Time After Time
TTITLE12=Ledesi - Alright
TTITLE13=Randy Bachman - Exactly Like You
EXTD=YEAR: 2007
EXTT0=
EXTT1=
EXTT2=
EXTT3=
EXTT4=
EXTT5=
EXTT6=
EXTT7=
EXTT8=
EXTT9=
EXTT10=
EXTT11=
EXTT12=
EXTT13=
PLAYORDER=
